# xmcd CD database file
#
# Track frame offsets:
#	150
#	28085
#	45963
#	68855
#	82007
#	97146
#	118811
#	142053
#	157298
#	178103
#	195890
#	211168
#	229615
#	249648
#	266469
#
# Disc length: 3843 seconds
#
# Revision: 0
# Processed by: cddbd v1.5.2PL0 Copyright (c) Steve Scherf et al.
# Submitted via: CDex 1.51
#
DISCID=d60f010f
DTITLE=和爵士談戀愛 - 和爵士談戀愛
DYEAR=1900
DGENRE=Jazz
TTITLE0=夏日時光
TTITLE1=深愛你
TTITLE2=化妝舞會
TTITLE3=伊帕尼馬的女孩
TTITLE4=世界多美好
TTITLE5=別憂鬱放輕鬆
TTITLE6=你的樣子
TTITLE7=陽光不見了
TTITLE8=墜入情網
TTITLE9=何時何時何時
TTITLE10=第五幕
TTITLE11=青鳥
TTITLE12=擁抱你
TTITLE13=愛的容顏
TTITLE14=爵士春秋
EXTD=
EXTT0=
EXTT1=
EXTT2=
EXTT3=
EXTT4=
EXTT5=
EXTT6=
EXTT7=
EXTT8=
EXTT9=
EXTT10=
EXTT11=
EXTT12=
EXTT13=
EXTT14=
PLAYORDER=
